<svg class="icon" viewBox="0 0 1365 1024" xmlns="http://www.w3.org/2000/svg" width="266.602" height="200"><path d="m887.603 510.84 193.262-192.99a37.888 37.888 0 0 0-53.589-53.521l-193.331 192.99-193.263-192.99a37.888 37.888 0 0 0-53.59 53.521l193.264 192.99L587.093 703.76a37.888 37.888 0 0 0 53.59 53.521l193.262-192.99 193.331 192.99a37.888 37.888 0 0 0 53.59-53.52L887.602 510.84z"/><path d="M1269.145 0h-798.72S118.511 391.784 1.161 508.929c-.41.546-.82 1.23-.82 1.912 0 .682.273 1.16.546 1.57l.274.273c118.033 117.828 468.991 508.791 468.991 508.791h798.924c50.79 0 92.092-41.233 92.092-91.887V91.751a91.819 91.819 0 0 0-92.092-91.75zm16.247 929.792c0 8.875-7.304 16.18-16.247 16.18H501.76L106.496 510.84 501.76 75.708h767.316c8.943 0 16.248 7.237 16.248 16.18v837.904z"/></svg>