<svg class="icon" viewBox="0 0 1024 1024" xmlns="http://www.w3.org/2000/svg" width="200" height="200"><path d="m365.714 594.651 4.206-3.657c42.789-42.788 42.789-112.457 0-155.063l-81.554 81.555 77.348 77.165zm55.955-210.468c71.314 71.314 71.314 187.246 0 258.56-1.28 1.28-2.743 2.377-4.206 3.657l51.748 51.749c1.28-1.28 2.743-2.378 4.206-3.658 99.84-99.84 99.84-262.217 0-362.057l-51.748 51.749z" fill="#4C4C4C"/><path d="M524.983 746.057c-1.28 1.28-2.743 2.377-4.206 3.657l51.749 51.749c1.28-1.28 2.743-2.377 4.205-3.657 156.892-156.892 156.892-411.977 0-568.869l-51.748 51.749c128.366 128.365 128.366 337.188 0 465.371z" fill="#4C4C4C"/><path d="M512 1005.714c-272.274 0-493.714-221.44-493.714-493.714S239.726 18.286 512 18.286 1005.714 239.726 1005.714 512 784.274 1005.714 512 1005.714zm0-914.285C280.137 91.429 91.429 280.137 91.429 512S280.137 932.571 512 932.571 932.571 743.863 932.571 512 743.863 91.429 512 91.429z" fill="#4C4C4C"/></svg>