<svg class="icon" viewBox="0 0 1024 1024" xmlns="http://www.w3.org/2000/svg" width="200" height="200"><path d="M873.754 149.961A511.715 511.715 0 1 0 149.677 874.04 511.715 511.715 0 0 0 873.754 149.96zm-42.217 678.663A447.75 447.75 0 1 1 198.29 195.376a447.75 447.75 0 0 1 633.247 633.248z" fill="#2c2c2c"/><path d="M767.573 480.018H543.698V256.142a31.982 31.982 0 0 0-63.965 0v223.876H255.858a31.982 31.982 0 0 0 0 63.964h223.875v223.876a31.982 31.982 0 0 0 63.965 0V543.982h223.875a31.982 31.982 0 0 0 0-63.964z" fill="#2c2c2c"/></svg>