<svg class="icon" viewBox="0 0 1024 1024" xmlns="http://www.w3.org/2000/svg" width="200" height="200"><path d="M513.489 67.428c-245.531 0-444.574 199.044-444.574 444.575s199.043 444.57 444.574 444.57 444.57-199.039 444.57-444.57S759.02 67.428 513.49 67.428zm0 835.402c-215.853 0-390.832-174.975-390.832-390.828 0-215.854 174.979-390.833 390.832-390.833 215.854 0 390.83 174.979 390.83 390.833 0 215.853-174.976 390.828-390.83 390.828z"/><path d="M425.146 423.659h35.336c9.754 0 17.671-7.916 17.671-17.67v-70.674c0-9.75-7.917-17.665-17.671-17.665h-35.336c-9.754 0-17.672 7.916-17.672 17.665v70.674c.001 9.754 7.918 17.67 17.672 17.67zM425.146 582.676h35.336c9.754 0 17.671-7.917 17.671-17.67v-70.674c0-9.755-7.917-17.666-17.671-17.666h-35.336c-9.754 0-17.672 7.911-17.672 17.666v70.673c.001 9.754 7.918 17.67 17.672 17.67zM566.491 423.659h35.337c9.754 0 17.67-7.916 17.67-17.67v-70.674c0-9.75-7.916-17.665-17.67-17.665H566.49c-9.75 0-17.665 7.916-17.665 17.665v70.674c0 9.754 7.916 17.67 17.665 17.67zM566.491 582.676h35.337c9.754 0 17.67-7.917 17.67-17.67v-70.674c0-9.755-7.916-17.666-17.67-17.666H566.49c-9.75 0-17.665 7.911-17.665 17.666v70.673c0 9.754 7.916 17.67 17.665 17.67zM283.8 423.659h35.335c9.752 0 17.667-7.916 17.667-17.67v-70.674c0-9.75-7.917-17.665-17.667-17.665H283.8c-9.755 0-17.672 7.916-17.672 17.665v70.674c.001 9.754 7.917 17.67 17.672 17.67zM743.18 317.65h-35.338c-9.754 0-17.67 7.916-17.67 17.665v70.674c0 9.754 7.916 17.67 17.67 17.67h35.337c9.754 0 17.666-7.916 17.666-17.67v-70.674c0-9.75-7.912-17.665-17.666-17.665zM336.803 565.005v-70.673c0-9.755-7.916-17.666-17.667-17.666h-35.335c-9.754 0-17.672 7.911-17.672 17.666v70.673c0 9.754 7.918 17.67 17.672 17.67h35.335c9.75 0 17.667-7.916 17.667-17.67zM743.18 476.666h-35.338c-9.754 0-17.67 7.911-17.67 17.666v70.673c0 9.754 7.916 17.67 17.67 17.67h35.337c9.754 0 17.666-7.916 17.666-17.67v-70.673c0-9.755-7.912-17.666-17.666-17.666zM707.842 653.35H319.135c-9.754 0-17.67 7.916-17.67 17.67v17.665c0 9.754 7.916 17.672 17.67 17.672h388.707c9.75 0 17.667-7.918 17.667-17.672V671.02c0-9.755-7.917-17.67-17.667-17.67z"/></svg>