<svg width="24" height="24" viewBox="0 0 24 24" fill="none" xmlns="http://www.w3.org/2000/svg">
<path d="M12.0157 2.57153C6.7834 2.57153 2.57141 6.41061 2.57141 11.1436C2.57141 14.058 4.18411 16.6298 6.61897 18.2068V20.8467C6.61897 21.1893 6.84875 21.4287 7.14599 21.4287C7.24507 21.4287 7.34415 21.3935 7.4095 21.3606L9.97506 19.5772C10.6328 19.7134 11.2905 19.7485 11.982 19.7485C17.2164 19.7485 21.4284 15.9095 21.4284 11.1765C21.46 6.41061 17.2164 2.57153 12.0157 2.57153ZM7.76999 12.5492C7.14388 12.5492 6.65059 12.0001 6.65059 11.383C6.65059 10.7307 7.17761 10.2167 7.76999 10.2167C8.3961 10.2167 8.88939 10.7658 8.88939 11.383C8.92101 12.0001 8.3961 12.5492 7.76999 12.5492ZM12.0811 12.5492C11.4549 12.5492 10.9617 12.0001 10.9617 11.383C10.9617 10.7307 11.4887 10.2167 12.0811 10.2167C12.7072 10.2167 13.2005 10.7658 13.2005 11.383C13.2005 12.0001 12.6734 12.5492 12.0811 12.5492ZM16.2277 12.5492C15.6016 12.5492 15.1083 12.0001 15.1083 11.383C15.1083 10.7307 15.6353 10.2167 16.2277 10.2167C16.8538 10.2167 17.3471 10.7658 17.3471 11.383C17.3471 12.0001 16.8538 12.5492 16.2277 12.5492Z" fill="#333333"/>
</svg>
