<svg width="24" height="24" viewBox="0 0 24 24" fill="none" xmlns="http://www.w3.org/2000/svg">
<path d="M8.36646 7.09091C8.36646 8.17589 8.79746 9.21643 9.56465 9.98362C10.3318 10.7508 11.3724 11.1818 12.4574 11.1818C13.5423 11.1818 14.5829 10.7508 15.3501 9.98362C16.1173 9.21643 16.5483 8.17589 16.5483 7.09091C16.5483 6.00593 16.1173 4.96539 15.3501 4.1982C14.5829 3.43101 13.5423 3 12.4574 3C11.3724 3 10.3318 3.43101 9.56465 4.1982C8.79746 4.96539 8.36646 6.00593 8.36646 7.09091Z" fill="#333333"/>
<path d="M10.4119 12.4089H14.5028C18.118 12.4089 21.0483 15.3393 21.0483 18.9544V19.3635C21.0483 19.7975 20.8759 20.2137 20.569 20.5206C20.2621 20.8274 19.8459 20.9999 19.4119 20.9999H5.50282C5.06883 20.9999 4.65261 20.8274 4.34574 20.5206C4.03886 20.2137 3.86646 19.7975 3.86646 19.3635V18.9544C3.86646 15.3393 6.79677 12.4089 10.4119 12.4089Z" fill="#333333"/>
</svg>
