<?xml version="1.0" standalone="no"?><!DOCTYPE svg PUBLIC "-//W3C//DTD SVG 1.1//EN" "http://www.w3.org/Graphics/SVG/1.1/DTD/svg11.dtd"><svg t="1640780917235" class="icon" viewBox="0 0 1024 1024" version="1.1" xmlns="http://www.w3.org/2000/svg" p-id="23580" xmlns:xlink="http://www.w3.org/1999/xlink" width="200" height="200"><defs><style type="text/css"></style></defs><path d="M885.077333 768l-269.482666-141.994667A34.133333 34.133333 0 0 1 597.333333 595.797333v-35.498666c48.981333-39.594667 85.333333-104.618667 85.333334-152.746667v-102.4a170.666667 170.666667 0 0 0-170.666667-170.666667 170.666667 170.666667 0 0 0-170.666667 170.666667v102.4c0 48.981333 36.522667 113.493333 85.333334 153.6v35.498667a34.133333 34.133333 0 0 1-18.261334 30.208L138.922667 768A68.266667 68.266667 0 0 0 102.4 828.416v26.965333a34.133333 34.133333 0 0 0 34.133333 34.133334h750.933334a34.133333 34.133333 0 0 0 34.133333-34.133334v-26.965333A68.266667 68.266667 0 0 0 885.077333 768z" p-id="23581"></path></svg>