<?xml version="1.0" standalone="no"?><!DOCTYPE svg PUBLIC "-//W3C//DTD SVG 1.1//EN" "http://www.w3.org/Graphics/SVG/1.1/DTD/svg11.dtd"><svg t="1640760726131" class="icon" viewBox="0 0 1024 1024" version="1.1" xmlns="http://www.w3.org/2000/svg" p-id="43463" xmlns:xlink="http://www.w3.org/1999/xlink" width="200" height="200"><defs><style type="text/css"></style></defs><path d="M867.671144 159.881109H359.562683q60.484226-29.832513 114.141791-57.753561 47.035702-23.483718 92.910871-47.035702T638.227031 18.63747A138.717774 138.717774 0 0 1 708.132051-0.067584a163.839891 163.839891 0 0 1 52.087432 10.171727 140.151373 140.151373 0 0 1 42.530105 31.061312z m152.234565 765.405357a99.054867 99.054867 0 0 1-7.236261 37.956241 94.071404 94.071404 0 0 1-20.479987 31.061313 97.143402 97.143402 0 0 1-31.334379 20.889586 100.829799 100.829799 0 0 1-39.18504 7.509328h-812.372792a109.226594 109.226594 0 0 1-73.864484-28.398914 99.942333 99.942333 0 0 1-22.937585-31.061313 87.039942 87.039942 0 0 1-8.396794-37.956241V306.586078A92.091672 92.091672 0 0 1 33.7261 237.500258a100.556733 100.556733 0 0 1 72.226085-28.398915h812.372792a100.351933 100.351933 0 0 1 72.157819 28.398915 91.955139 91.955139 0 0 1 29.69598 69.017554v187.938008h-254.088364a101.512466 101.512466 0 0 0-72.226085 27.852781 90.043673 90.043673 0 0 0-29.627714 68.266621 115.097523 115.097523 0 0 0 12.287992 49.220234 92.501272 92.501272 0 0 0 29.627714 33.177578 101.717266 101.717266 0 0 0 59.938093 14.95039h254.088364z m-245.759836-273.066485a50.790366 50.790366 0 0 1-44.03197-25.395183 50.790366 50.790366 0 0 1 0-50.790366 50.790366 50.790366 0 0 1 44.03197-25.395183 50.790366 50.790366 0 0 1 50.790366 50.790366 50.790366 50.790366 0 0 1-50.790366 50.790366z m0 0" p-id="43464"></path></svg>