<?xml version="1.0" standalone="no"?><!DOCTYPE svg PUBLIC "-//W3C//DTD SVG 1.1//EN" "http://www.w3.org/Graphics/SVG/1.1/DTD/svg11.dtd"><svg t="1640760244231" class="icon" viewBox="0 0 1024 1024" version="1.1" xmlns="http://www.w3.org/2000/svg" p-id="24640" xmlns:xlink="http://www.w3.org/1999/xlink" width="200" height="200"><defs><style type="text/css"></style></defs><path d="M206.848 158.72c-65.536 28.672-80.896 132.096-27.648 184.32 56.32 57.344 160.768 35.84 188.416-38.912C405.504 202.752 307.2 112.64 206.848 158.72zM708.608 158.72c-65.536 28.672-80.896 132.096-27.648 184.32 56.32 57.344 160.768 35.84 188.416-38.912C907.264 202.752 808.96 112.64 708.608 158.72zM206.848 660.48c-65.536 28.672-80.896 132.096-27.648 184.32 56.32 57.344 160.768 35.84 188.416-38.912C405.504 704.512 307.2 614.4 206.848 660.48zM708.608 660.48c-65.536 28.672-80.896 132.096-27.648 184.32 56.32 57.344 160.768 35.84 188.416-38.912C907.264 704.512 808.96 614.4 708.608 660.48z" p-id="24641"></path></svg>