<?xml version="1.0" standalone="no"?><!DOCTYPE svg PUBLIC "-//W3C//DTD SVG 1.1//EN" "http://www.w3.org/Graphics/SVG/1.1/DTD/svg11.dtd"><svg t="1640760033070" class="icon" viewBox="0 0 1024 1024" version="1.1" xmlns="http://www.w3.org/2000/svg" p-id="11683" xmlns:xlink="http://www.w3.org/1999/xlink" width="200" height="200"><defs><style type="text/css"></style></defs><path d="M511.616 384.256c75.52 0 136.704 61.696 136.704 137.6s-61.184 137.472-136.704 137.472-136.704-61.696-136.704-137.6 61.312-137.472 136.704-137.472m404.992-135.04V92.544c0-26.368-21.248-47.744-47.488-47.744H154.112c-26.24 0-47.488 21.376-47.488 47.744v156.672s84.736 80.512 263.424 150.912c0 0-130.048 31.488-263.424-50.816v602.752c0 14.976 12.16 27.136 27.008 27.136h755.712c14.976 0 27.008-12.16 27.008-27.136v-602.88C781.568 427.648 652.928 400 652.928 400c189.952-71.04 263.68-150.784 263.68-150.784" p-id="11684"></path></svg>