<?xml version="1.0" standalone="no"?><!DOCTYPE svg PUBLIC "-//W3C//DTD SVG 1.1//EN" "http://www.w3.org/Graphics/SVG/1.1/DTD/svg11.dtd"><svg t="1640780734835" class="icon" viewBox="0 0 1024 1024" version="1.1" xmlns="http://www.w3.org/2000/svg" p-id="9981" xmlns:xlink="http://www.w3.org/1999/xlink" width="200" height="200"><defs><style type="text/css"></style></defs><path d="M758.510933 561.3056C867.4304 561.3056 955.733333 649.591467 955.733333 758.510933S867.4304 955.733333 758.510933 955.733333c-108.919467 0-197.205333-88.302933-197.205333-197.2224 0-108.919467 88.285867-197.205333 197.205333-197.205333z m0 59.733333a137.489067 137.489067 0 1 0 0 274.961067 137.489067 137.489067 0 0 0 0-274.961067z m2.440534 39.441067c17.749333 0 32.341333 4.317867 43.3664 13.1072 11.1616 9.1136 16.7936 21.6576 16.7936 37.3248 0 15.684267-6.417067 27.579733-18.773334 35.242667l-0.699733 0.375466 2.798933 1.570134c3.072 1.8432 5.802667 3.925333 8.123734 6.2464l2.218666 2.389333c6.3488 7.168 9.540267 16.4352 9.540267 27.306667 0 16.605867-5.853867 30.395733-17.527467 41.079466-12.032 10.820267-27.733333 16.264533-46.762666 16.264534-18.1248 0-33.058133-4.7616-44.3392-14.318934-12.544-10.581333-19.592533-26.077867-21.060267-45.858133l-0.4096-5.495467h37.717333l0.2048 4.898134c0.4096 9.489067 3.191467 16.366933 8.430934 21.077333 4.795733 4.420267 11.144533 6.690133 19.234133 6.690133 9.0112 0 16.008533-2.5088 20.906667-7.236266 4.386133-4.4032 6.536533-9.5744 6.536533-15.940267 0-7.816533-2.269867-13.294933-6.656-16.776533-4.334933-3.618133-11.127467-5.461333-20.7872-5.461334h-16.5888v-30.498133h16.5888c8.533333 0 14.7456-1.7408 18.670933-4.9664 3.6352-3.1232 5.563733-7.918933 5.563734-14.506667 0-6.638933-1.7408-11.3152-4.864-14.301866-3.771733-3.242667-9.728-4.9664-17.988267-4.9664-8.516267 0-14.592 1.928533-18.875733 5.853866-4.420267 3.8912-7.099733 10.0352-7.901867 18.705067l-0.426667 4.642133h-36.608l0.4608-5.546666c1.501867-18.005333 8.1408-32.085333 20.036267-42.0352 11.195733-9.966933 25.634133-14.865067 43.076267-14.865067zM520.533333 324.266667C628.923733 324.266667 716.8 412.142933 716.8 520.533333c0 10.325333-0.802133 20.48-2.338133 30.378667a213.538133 213.538133 0 0 0-163.566934 163.549867A196.949333 196.949333 0 0 1 520.533333 716.8C412.142933 716.8 324.266667 628.923733 324.266667 520.533333S412.142933 324.266667 520.533333 324.266667z m0 59.733333a136.533333 136.533333 0 0 0-16.810666 272.042667l2.833066 0.290133 1.979734-4.7104c7.492267-17.408 16.725333-33.877333 27.511466-49.186133L447.146667 602.453333V597.333333c0-18.500267 6.075733-34.474667 18.3296-47.940266 2.833067-3.208533 6.929067-6.9632 12.288-11.281067l5.751466-4.522667 6.587734-4.881066 7.424-5.239467 8.2432-5.632c10.1376-6.894933 17.834667-13.073067 22.5792-17.954133 6.656-7.338667 9.949867-15.0528 9.949866-23.04 0-7.645867-2.048-13.1584-5.700266-16.554667-3.925333-3.4816-10.120533-5.290667-18.926934-5.290667-9.0112 0-15.394133 2.833067-19.746133 8.635734-4.471467 5.546667-7.0656 14.557867-7.509333 26.743466l-0.187734 4.949334h-38.1952l0.068267-5.188267c0.256-20.053333 6.280533-36.283733 18.158933-48.657067 12.288-13.277867 28.5184-19.933867 48.384-19.933866 17.749333 0 32.597333 5.102933 44.407467 15.36 11.707733 10.410667 17.5616 23.773867 17.5616 40.157866 0 15.7184-6.144 30.088533-18.210133 43.1616-5.102933 5.341867-12.970667 11.656533-24.149334 19.456l-7.953066 5.393067-8.516267 5.632c-9.386667 6.314667-16.3328 12.117333-20.9408 17.3568h67.874133a273.3568 273.3568 0 0 1 86.920534-59.511467l4.7104-1.979733-0.3072-2.850133a136.567467 136.567467 0 0 0-131.242667-119.6544l-4.266667-0.068267zM264.533333 68.266667C372.923733 68.266667 460.8 156.142933 460.8 264.533333c0 18.517333-2.56 36.4544-7.355733 53.435734a213.845333 213.845333 0 0 0-135.4752 135.458133c-16.981333 4.8128-34.9184 7.3728-53.435734 7.3728C156.142933 460.8 68.266667 372.923733 68.266667 264.533333S156.142933 68.266667 264.533333 68.266667z m0 59.733333a136.533333 136.533333 0 1 0 6.3488 272.930133l4.266667-0.3072 0.341333-0.682666a273.9712 273.9712 0 0 1 118.272-121.309867l6.8608-3.4816 0.3072-4.266667 0.136534-6.3488a136.533333 136.533333 0 0 0-136.533334-136.533333z m30.72 46.08v180.906667h-38.7584l-0.017066-131.601067-3.515734 2.372267a109.533867 109.533867 0 0 1-24.234666 11.195733l-5.461334 1.672533-6.519466 1.8432v-38.519466l3.908266-0.955734c7.338667-1.792 15.223467-4.983467 23.4496-9.454933 8.6016-5.154133 15.5136-10.410667 20.923734-15.9232l1.501866-1.536H295.253333z" p-id="9982"></path></svg>