<?xml version="1.0" standalone="no"?><!DOCTYPE svg PUBLIC "-//W3C//DTD SVG 1.1//EN" "http://www.w3.org/Graphics/SVG/1.1/DTD/svg11.dtd"><svg t="1640760643133" class="icon" viewBox="0 0 1024 1024" version="1.1" xmlns="http://www.w3.org/2000/svg" p-id="36585" xmlns:xlink="http://www.w3.org/1999/xlink" width="200" height="200"><defs><style type="text/css"></style></defs><path d="M492.032 204.8h363.904c74.752 0 104.32 27.84 104.32 87.68v539.264c0 66.176-33.088 86.4-104.32 86.4H149.568a85.824 85.824 0 0 1-85.248-86.4V183.232c0-47.744 38.208-86.4 85.184-86.4h196.416c10.944 0 21.504 4.224 29.44 11.904l87.232 84.224c7.936 7.68 18.496 11.904 29.44 11.904zM170.944 395.52a32 32 0 0 0 0 64h682.688a32 32 0 1 0 0-64H170.944z" p-id="36586" fill="#2c2c2c"></path></svg>