<?xml version="1.0" standalone="no"?><!DOCTYPE svg PUBLIC "-//W3C//DTD SVG 1.1//EN" "http://www.w3.org/Graphics/SVG/1.1/DTD/svg11.dtd"><svg t="1640760089670" class="icon" viewBox="0 0 1024 1024" version="1.1" xmlns="http://www.w3.org/2000/svg" p-id="13511" xmlns:xlink="http://www.w3.org/1999/xlink" width="200" height="200"><defs><style type="text/css"></style></defs><path d="M863.231062 286.667428L657.289764 634.260283c-43.487916 73.400579-160.836771 84.267205-262.105161 24.259876-101.279096-59.996623-148.118001-168.138287-104.630085-241.538867L496.495817 69.388438c43.487916-73.400579 160.836771-84.256499 262.10516-24.259876s148.118001 168.138287 104.630085 241.538866zM349.245004 749.938996s150.933688 108.45214 342.593136-32.118106c57.876828-61.088638 107.060355-139.178461 107.060355-139.178462l53.530177 32.118107s-101.37545 227.524666-353.299171 246.238816c-63.872208 4.742774-117.76639-21.412071-117.76639-21.412071l-74.942249 107.060355-107.060354-64.236213 64.236213-107.060355S134.235694 685.210305 135.124295 492.994144c0.588832-126.738048 85.648284-256.944852 85.648284-256.944851l53.530177 42.824141s-62.983607 83.838964-74.942248 224.826746 149.884497 246.238816 149.884496 246.238816zM188.654472 1017.589883V910.529528l96.354319 53.530178-96.354319 53.530177z" p-id="13512"></path></svg>