<?xml version="1.0" standalone="no"?><!DOCTYPE svg PUBLIC "-//W3C//DTD SVG 1.1//EN" "http://www.w3.org/Graphics/SVG/1.1/DTD/svg11.dtd"><svg t="1640759977379" class="icon" viewBox="0 0 1110 1024" version="1.1" xmlns="http://www.w3.org/2000/svg" p-id="7881" xmlns:xlink="http://www.w3.org/1999/xlink" width="216.796875" height="200"><defs><style type="text/css"></style></defs><path d="M924.10761817 300.55421709v-86.74698779l108.43373496-86.74698868v260.24096426l-108.43373496-86.74698779z m-54.21686749 75.90361465H609.64978731a21.68674717 21.68674717 0 0 1-21.68674718-21.68674717V148.74698779a21.68674717 21.68674717 0 0 1 21.68674717-21.68674717h260.24096338a21.68674717 21.68674717 0 0 1 21.68674718 21.68674717v206.02409679a21.68674717 21.68674717 0 0 1-21.68674718 21.68674716zM620.49316045 745.13253008s119.0385545-66.9686748 162.65060244-65.06024063c43.61204795 1.9084333 173.49397559 108.43373496 173.49397558 108.43373496s-11.89518047 138.13373497-151.80722841 162.65060244c-139.91204795 24.51686748-477.1084333-281.92771055-477.10843418-281.92771142S58.1124377 352.47228945 67.4811125 224.65060244C76.84978731 96.82891542 219.28834092 62 219.28834092 62s118.83253008 125.77228945 119.27710898 173.49397559c0.44457802 47.72168701-65.06024062 162.65060244-65.06024151 162.65060244s42.15903574 125.83734961 130.12048213 206.02409677 216.86746992 140.96385527 216.86746993 140.96385528z" p-id="7882" fill="#2c2c2c"></path></svg>